<svg xmlns="http://www.w3.org/2000/svg" fill="none" style="width: 45px;height: auto;" viewBox="0 0 41 41">  <circle cx="20.5" cy="20.5" r="20.5" fill="#458FF6"/> <path d="M8.09794 16.1388C8.31663 14.8691 8.8663 13.6795 9.69152 12.69C10.5167 11.7005 11.5883 10.9461 12.7981 10.5029C14.008 10.0598 15.3133 9.94349 16.5824 10.1658C17.8515 10.3882 19.0396 10.9413 20.0267 11.7694C20.2893 11.9976 20.6256 12.1233 20.9735 12.1233C21.3215 12.1233 21.6577 11.9976 21.9204 11.7694C23.2996 10.5825 25.0719 9.95256 26.8909 10.0028C28.7098 10.053 30.4447 10.7798 31.7563 12.041C33.068 13.3022 33.8622 15.0072 33.9837 16.8228C34.1052 18.6384 33.5452 20.434 32.4133 21.8587C31.6863 22.7578 31.0051 23.6929 30.3721 24.6605L27.0504 30.0932C26.8418 30.439 26.5467 30.7246 26.1943 30.9219C25.8419 31.1192 25.4442 31.2214 25.0403 31.2186V31.2186C24.7259 31.2188 24.4146 31.1555 24.1254 31.0322C23.8361 30.9089 23.5748 30.7283 23.3572 30.5013C23.1396 30.2743 22.9703 30.0056 22.8594 29.7114C22.7485 29.4171 22.6984 29.1035 22.712 28.7893L22.7818 26.7094C22.7947 26.466 22.7572 26.2226 22.6716 25.9943C22.586 25.7661 22.4542 25.5581 22.2844 25.3832C22.1146 25.2083 21.9106 25.0704 21.685 24.9781C21.4594 24.8858 21.2172 24.841 20.9735 24.8467V24.8467C20.7372 24.8477 20.5034 24.8959 20.286 24.9887C20.0686 25.0815 19.8719 25.2168 19.7077 25.3868C19.5435 25.5569 19.415 25.758 19.3298 25.9785C19.2446 26.199 19.2045 26.4343 19.2118 26.6706L19.2738 28.7505C19.2875 29.0647 19.2373 29.3783 19.1264 29.6726C19.0155 29.9668 18.8462 30.2355 18.6286 30.4625C18.411 30.6895 18.1497 30.8701 17.8605 30.9934C17.5712 31.1166 17.26 31.18 16.9455 31.1797V31.1797C16.543 31.1813 16.1469 31.0784 15.7959 30.8812C15.445 30.6839 15.1512 30.3991 14.9432 30.0544L11.6603 24.6915C11.0272 23.7315 10.346 22.8042 9.6191 21.9131C8.97262 21.1123 8.50287 20.1839 8.2407 19.1887C7.97853 18.1935 7.92987 17.1541 8.09794 16.1388V16.1388Z" fill="#EBEEF2"/> <path d="M12.3899 15.161C12.2681 15.1606 12.1475 15.1356 12.0355 15.0876C11.9235 15.0396 11.8224 14.9696 11.738 14.8816C11.5683 14.7102 11.4731 14.4787 11.4731 14.2375C11.4731 13.9962 11.5683 13.7648 11.738 13.5933C12.6834 12.6687 13.9546 12.153 15.277 12.1575C15.5044 12.1785 15.7157 12.2836 15.8695 12.4523C16.0233 12.621 16.1086 12.8411 16.1086 13.0694C16.1086 13.2977 16.0233 13.5178 15.8695 13.6865C15.7157 13.8552 15.5044 13.9604 15.277 13.9813C14.4332 13.9782 13.6219 14.3071 13.0186 14.8972C12.8517 15.0641 12.626 15.1589 12.3899 15.161V15.161Z" fill="white"/> <path d="M11.1402 18.1256C11.021 18.1256 10.9029 18.1021 10.7927 18.0565C10.6826 18.0108 10.5825 17.9439 10.4981 17.8596C10.4138 17.7753 10.3469 17.6752 10.3013 17.565C10.2557 17.4549 10.2322 17.3368 10.2322 17.2175V17.2175C10.2244 17.1713 10.2244 17.1241 10.2322 17.0778C10.2391 16.9585 10.2695 16.8417 10.3217 16.7342C10.3738 16.6267 10.4467 16.5305 10.5361 16.4512C10.6255 16.3719 10.7297 16.311 10.8427 16.272C10.9557 16.2331 11.0753 16.2168 11.1946 16.2241C11.4348 16.2382 11.6598 16.3462 11.821 16.5248C11.9822 16.7035 12.0666 16.9384 12.056 17.1787V17.2253C12.055 17.3446 12.0305 17.4624 11.9839 17.5722C11.9374 17.682 11.8696 17.7815 11.7846 17.8651C11.6995 17.9487 11.5989 18.0148 11.4883 18.0594C11.3778 18.1041 11.2595 18.1266 11.1402 18.1256Z" fill="white"/> </svg>